HIERARCHY
ROOT SpineBase
{
  OFFSET 0.000000 0.000000 0.000000
  CHANNELS 6 Xposition Yposition Zposition Zrotation Xrotation Yrotation
  JOINT SpineMid
  {
    OFFSET 0.000000 30.256944 0.000000
    CHANNELS 3 Zrotation Xrotation Yrotation
    JOINT SpineShoulder
    {
      OFFSET 0.057243 22.432042 -0.794387
      CHANNELS 3 Zrotation Xrotation Yrotation
      JOINT Neck
      {
        OFFSET 0.037149 7.410695 -0.597637
        CHANNELS 3 Zrotation Xrotation Yrotation
        JOINT Head
        {
          OFFSET -3.140475 14.932760 0.808300
          CHANNELS 3 Zrotation Xrotation Yrotation
          End Site
          {
            OFFSET 0 0 0
          }
        }
      }
      JOINT ShoulderLeft
      {
        OFFSET -16.488291 -4.810516 7.635877
        CHANNELS 3 Zrotation Xrotation Yrotation
        JOINT ElbowLeft
        {
          OFFSET -1.305795 -27.800254 0.476862
          CHANNELS 3 Zrotation Xrotation Yrotation
          JOINT WristLeft
          {
            OFFSET -0.281224 -20.216538 -8.292206
            CHANNELS 3 Zrotation Xrotation Yrotation
            JOINT HandLeft
            {
              OFFSET 2.060912 -2.800723 -2.447451
              CHANNELS 3 Zrotation Xrotation Yrotation
              JOINT HandTipLeft
              {
                OFFSET 1.808089 -7.751019 -1.721535
                CHANNELS 3 Zrotation Xrotation Yrotation
                End Site
                {
                  OFFSET 0 0 0
                }
              }
              JOINT ThumbLeft
              {
                OFFSET 2.937322 0.527257 -3.222488
                CHANNELS 3 Zrotation Xrotation Yrotation
                End Site
                {
                  OFFSET 0 0 0
                }
              }
            }
          }
        }
      }
      JOINT ShoulderRight
      {
        OFFSET 13.412601 -4.118858 -8.092535
        CHANNELS 3 Zrotation Xrotation Yrotation
        JOINT ElbowRight
        {
          OFFSET 6.116148 -24.288620 -2.957228
          CHANNELS 3 Zrotation Xrotation Yrotation
          JOINT WristRight
          {
            OFFSET -5.561726 -20.342737 -5.956829
            CHANNELS 3 Zrotation Xrotation Yrotation
            JOINT HandRight
            {
              OFFSET -3.086242 -6.089363 -0.072017
              CHANNELS 3 Zrotation Xrotation Yrotation
              JOINT HandTipRight
              {
                OFFSET -2.170523 -5.978351 -0.802195
                CHANNELS 3 Zrotation Xrotation Yrotation
                End Site
                {
                  OFFSET 0 0 0
                }
              }
              JOINT ThumbRight
              {
                OFFSET -2.751107 1.523930 -1.560050
                CHANNELS 3 Zrotation Xrotation Yrotation
                End Site
                {
                  OFFSET 0 0 0
                }
              }
            }
          }
        }
      }
    }
  }
  JOINT HipLeft
  {
    OFFSET -6.401195 -0.157605 -0.679425
    CHANNELS 3 Zrotation Xrotation Yrotation
    JOINT KneeLeft
    {
      OFFSET 0.253935 -30.846404 0.987467
      CHANNELS 3 Zrotation Xrotation Yrotation
      JOINT AnkleLeft
      {
        OFFSET 5.298945 -38.794365 7.386019
        CHANNELS 3 Zrotation Xrotation Yrotation
        JOINT FootLeft
        {
          OFFSET -5.634044 -7.064756 -6.989563
          CHANNELS 3 Zrotation Xrotation Yrotation
          End Site
          {
            OFFSET 0 0 0
          }
        }
      }
    }
  }
  JOINT HipRight
  {
    OFFSET 6.770828 1.284641 -6.393463
    CHANNELS 3 Zrotation Xrotation Yrotation
    JOINT KneeRight
    {
      OFFSET 6.245545 -33.402882 -3.875641
      CHANNELS 3 Zrotation Xrotation Yrotation
      JOINT AnkleRight
      {
        OFFSET 1.940360 -36.712230 3.475298
        CHANNELS 3 Zrotation Xrotation Yrotation
        JOINT FootRight
        {
          OFFSET -2.030706 -7.248015 -8.759346
          CHANNELS 3 Zrotation Xrotation Yrotation
          End Site
          {
            OFFSET 0 0 0
          }
        }
      }
    }
  }
}
MOTION
Frames: 6
Frame Time: 0.033333
-17.685492 73.695785 378.103700 3.767761 -4.308668 19.438035 0.204611 -0.207103 -19.147814 0.081280 0.045093 0.193775 -3.367558 -5.753169 -2.378037 0.000000 0.000000 0.000000 -9.686214 -1.946858 0.129295 25.707141 35.138199 -14.713544 43.452889 2.819808 -7.972849 -26.917437 14.784865 14.921542 0.000000 0.000000 0.000000 0.000000 0.000000 0.000000 6.577173 4.637095 -2.223062 -52.098066 -0.164870 12.024972 -23.831985 -30.311764 -13.915227 15.450191 25.774046 -2.666595 0.000000 0.000000 0.000000 0.000000 0.000000 0.000000 -9.988281 7.127401 -18.607277 10.563961 -6.620757 -0.190706 -4.425036 12.823159 -1.493589 0.000000 0.000000 0.000000 2.414855 29.153946 -15.659437 0.405504 -21.060474 -5.121850 6.076619 6.218739 -7.222683 0.000000 0.000000 0.000000
-16.414494 71.590475 376.225223 4.925554 -5.704905 20.178828 0.119522 -0.202673 -19.740472 0.037468 0.097703 0.239933 -4.376085 -5.079293 -2.530791 0.000000 0.000000 0.000000 -10.853305 -1.488344 0.277081 27.031648 38.024436 -16.091042 56.406778 -2.840025 -11.742178 -39.662131 20.067898 20.583613 0.000000 0.000000 0.000000 0.000000 0.000000 0.000000 8.340908 6.415866 -3.001186 -58.044531 -2.348646 12.378319 -34.435198 -41.619174 -20.801796 21.919178 40.745335 -6.894342 0.000000 0.000000 0.000000 0.000000 0.000000 0.000000 -12.808280 10.921332 -18.523525 13.327952 -11.277917 -0.364421 -5.371737 15.604586 0.567495 0.000000 0.000000 0.000000 4.068502 34.842228 -16.529377 -0.511412 -20.938100 -5.990911 6.595480 3.542252 -7.272987 0.000000 0.000000 0.000000
-15.184248 69.512535 374.071340 5.848546 -7.086706 21.701811 0.096307 -0.045238 -21.117553 -0.013760 0.160440 0.274840 -5.310058 -3.659000 -2.453587 0.000000 0.000000 0.000000 -11.431537 -2.831829 0.416636 27.516587 40.583254 -17.400026 62.473466 -6.112118 -13.566603 -48.897576 29.260662 23.694350 0.000000 0.000000 0.000000 0.000000 0.000000 0.000000 7.977274 7.017298 -3.413397 -60.668749 -3.796529 13.262190 -43.644646 -47.939875 -27.824533 29.640529 50.468192 -12.433623 0.000000 0.000000 0.000000 0.000000 0.000000 0.000000 -14.184376 15.270461 -19.143178 14.513816 -17.007156 -0.726148 -5.740592 19.160068 2.631750 0.000000 0.000000 0.000000 6.918439 39.008397 -18.966029 -1.123830 -18.426669 -6.321334 6.942593 -0.752182 -7.412147 0.000000 0.000000 0.000000
-13.867540 67.768643 370.930760 5.888275 -8.451558 23.289597 0.131221 0.175811 -22.639138 -0.037910 0.255214 0.270958 -4.992473 -2.544439 -2.426850 0.000000 0.000000 0.000000 -11.472496 -5.784882 0.562877 28.973066 44.161486 -19.645559 65.812966 -16.449907 -13.322031 -63.816872 36.424305 34.152672 0.000000 0.000000 0.000000 0.000000 0.000000 0.000000 7.035650 6.787971 -3.542880 -60.614443 -5.044184 14.460287 -47.843240 -53.772867 -32.709553 31.077539 63.318356 -14.175115 0.000000 0.000000 0.000000 0.000000 0.000000 0.000000 -14.563410 17.859412 -20.076124 14.543699 -21.091180 -1.558660 -4.566877 21.918772 3.927581 0.000000 0.000000 0.000000 10.716636 41.411686 -21.943778 -1.522720 -15.802399 -6.365576 6.735092 -4.806774 -7.188602 0.000000 0.000000 0.000000
-12.754030 66.400609 367.487893 5.202089 -10.024311 23.469877 0.052694 0.171116 -22.812919 -0.061329 0.197178 0.245317 -4.279032 -1.988147 -2.595791 0.000000 0.000000 0.000000 -11.421425 -10.072879 0.772415 33.018730 49.346385 -24.107407 62.200482 -24.414092 -11.049696 -67.695242 39.421532 41.972545 0.000000 0.000000 0.000000 0.000000 0.000000 0.000000 5.741937 6.725279 -3.548780 -58.834990 -5.371245 15.979212 -53.316937 -63.230645 -41.277984 8.636048 77.807122 5.301084 0.000000 0.000000 0.000000 0.000000 0.000000 0.000000 -14.070996 18.704368 -19.939620 13.222528 -23.718133 -2.775195 -1.056247 22.433152 4.238996 0.000000 0.000000 0.000000 14.985489 44.067588 -23.764196 -2.102450 -14.906783 -6.586818 6.046590 -7.971495 -6.834967 0.000000 0.000000 0.000000
-11.640549 66.053449 363.330038 3.512211 -11.962783 22.665789 0.045057 0.135886 -22.148582 -0.041307 0.173399 0.178665 -3.275992 -0.970971 -2.685982 0.000000 0.000000 0.000000 -9.986553 -12.897681 0.991088 37.140193 53.091588 -28.788683 57.747019 -32.325207 -9.307815 -65.847763 38.213666 47.131479 0.000000 0.000000 0.000000 0.000000 0.000000 0.000000 4.751918 6.863659 -3.446417 -55.004199 -5.042691 17.245053 -57.989827 -66.886576 -45.445736 -32.244803 81.681173 45.937935 0.000000 0.000000 0.000000 0.000000 0.000000 0.000000 -12.948885 16.989514 -19.270521 11.257043 -23.284248 -4.097513 2.931554 22.318986 3.563316 0.000000 0.000000 0.000000 18.122342 45.288710 -24.077192 -2.276861 -14.022535 -6.470174 5.276964 -10.230831 -6.349258 0.000000 0.000000 0.000000
